<?xml version="1.0" encoding="UTF-8"?>
<svg version="1.1" xmlns="http://www.w3.org/2000/svg" width="225" height="225">
<path d="M0 0 C9.11128535 -0.0467001 18.2225284 -0.08205799 27.33390808 -0.10362434 C31.56639893 -0.11398419 35.79880685 -0.12799749 40.03125 -0.15087891 C44.12912795 -0.17288976 48.22692703 -0.18462695 52.32485962 -0.18975449 C53.87465656 -0.19340032 55.42445005 -0.20051647 56.97421265 -0.21146011 C76.98464528 -0.34691768 93.08064227 2.61813732 111 12 C111 12.99 111 13.98 111 15 C110.43782776 15.00364563 109.87565552 15.00729126 109.29644775 15.01104736 C103.3900979 15.05319621 97.48450193 15.12276273 91.57861328 15.20751953 C89.38109923 15.23556467 87.18348739 15.25686014 84.98583984 15.27099609 C64.80949564 15.29723266 64.80949564 15.29723266 46.5 23.125 C43.71655651 24.91568198 40.9890784 26.5733944 38 28 C38 28.66 38 29.32 38 30 C37.34 30 36.68 30 36 30 C35.72800781 30.58007812 35.45601562 31.16015625 35.17578125 31.7578125 C34.00978921 33.9813322 32.67572927 35.85666267 31.1875 37.875 C22.90590807 50.38895341 21.25670002 63.36771516 23.44140625 77.9453125 C26.91846709 91.54739954 36.16289699 102.6441861 47.9375 109.875 C56.58178313 114.90838005 65.15872906 116.44558023 75.0390625 116.51171875 C76.54936539 116.53864555 76.54936539 116.53864555 78.09017944 116.56611633 C81.26841186 116.6197813 84.44649796 116.65397353 87.625 116.6875 C89.79559309 116.72071179 91.96616698 116.75520495 94.13671875 116.79101562 C99.42434775 116.8754818 104.71199678 116.94401458 110 117 C110 118.32 110 119.64 110 121 C107.23577572 122.30760885 104.46487584 123.59585798 101.6875 124.875 C100.92115234 125.23980469 100.15480469 125.60460937 99.36523438 125.98046875 C86.5161814 131.84518173 73.16988938 131.41375845 59.3125 131.625 C57.26057382 131.66155179 55.20865325 131.69841966 53.15673828 131.7355957 C47.1046842 131.84050584 41.05246312 131.92288951 35 132 C34.11934875 132.01202454 33.23869751 132.02404907 32.33135986 132.03643799 C27.6966369 132.09919139 23.06217888 132.14965591 18.42709351 132.17523193 C16.41660805 132.18725125 14.40617404 132.20706867 12.39575195 132.22705078 C11.20038818 132.22817871 10.00502441 132.22930664 8.7734375 132.23046875 C7.74653809 132.23457764 6.71963867 132.23868652 5.66162109 132.24291992 C2.7944436 131.98123935 1.34277564 131.66159317 -1 130 C-1.60621643 127.5493927 -1.60621643 127.5493927 -1.74438477 124.42114258 C-1.79958282 123.24484283 -1.85478088 122.06854309 -1.91165161 120.8565979 C-2.06898544 113.98863661 -2.12189833 107.13086293 -2.08984375 100.26171875 C-2.08579175 98.64580844 -2.08196752 97.02989755 -2.07835388 95.41398621 C-2.02927577 78.27301934 -1.84782755 61.13292236 -1.62768555 43.9934082 C-1.5712183 39.58132949 -1.52157098 35.16919861 -1.47328281 30.75702381 C-1.43453683 27.3110467 -1.39143664 23.86513446 -1.34705925 20.41922569 C-1.32675276 18.78811201 -1.30802128 17.1569779 -1.29092598 15.52582741 C-1.26697929 13.2838146 -1.23695406 11.04196449 -1.20532227 8.80004883 C-1.18977798 7.53042801 -1.1742337 6.26080719 -1.15821838 4.95271301 C-1 2 -1 2 0 0 Z " fill="#EB1B24" transform="translate(32,46)"/>
<path d="M0 0 C1.29501938 -0.02567047 2.59003876 -0.05134094 3.92430115 -0.07778931 C5.32069344 -0.09412343 6.71710329 -0.10901103 8.11352539 -0.12255859 C8.82526979 -0.13070965 9.5370142 -0.1388607 10.27032661 -0.14725876 C14.03372111 -0.18878577 17.79697376 -0.21747827 21.56054688 -0.23632812 C25.42917211 -0.25849091 29.29550697 -0.327372 33.1633215 -0.40667152 C36.15666247 -0.45913893 39.14946064 -0.47572219 42.1432209 -0.48289108 C43.56859478 -0.49257995 44.99394789 -0.51568732 46.41886711 -0.55296707 C57.53788836 -0.82593523 57.53788836 -0.82593523 61.97854614 2.19268799 C63.95195286 4.15159846 65.6637238 6.09085583 67.27368164 8.35400391 C66.94368164 9.34400391 66.61368164 10.33400391 66.27368164 11.35400391 C64.95609612 11.36613419 64.95609612 11.36613419 63.6118927 11.37850952 C55.32813546 11.45649619 47.04453985 11.54379927 38.7609911 11.64153099 C34.50247763 11.69144651 30.24398841 11.73777693 25.98535156 11.77587891 C21.87443755 11.81279171 17.76372863 11.85916786 13.65299034 11.91206741 C12.0857777 11.93057953 10.51852113 11.94569923 8.95124245 11.95734787 C6.75357754 11.97426504 4.5563791 12.00331247 2.35888672 12.03515625 C1.1086824 12.04847992 -0.14152191 12.06180359 -1.42961121 12.07553101 C-5.85911584 12.44969133 -8.60660785 13.04123986 -11.53881836 16.47900391 C-11.93069336 17.09775391 -12.32256836 17.71650391 -12.72631836 18.35400391 C-11.81621002 18.35178329 -10.90610168 18.34956268 -9.96841431 18.34727478 C-1.40424241 18.327263 7.15992168 18.31202523 15.72411156 18.30219173 C20.12736379 18.29696635 24.53059675 18.28987493 28.93383789 18.27856445 C33.18077408 18.26772336 37.4276917 18.26172446 41.67464066 18.25912666 C43.29740313 18.25727463 44.92016456 18.25365823 46.54291916 18.24827385 C48.81045503 18.24104722 51.07791351 18.24001365 53.34545898 18.24047852 C54.63785492 18.2382579 55.93025085 18.23603729 57.2618103 18.23374939 C60.27368164 18.35400391 60.27368164 18.35400391 62.27368164 19.35400391 C62.30055443 21.16642442 62.3200188 22.97895624 62.33618164 24.79150391 C62.3477832 25.80083984 62.35938477 26.81017578 62.37133789 27.85009766 C62.27368164 30.35400391 62.27368164 30.35400391 61.27368164 31.35400391 C58.97314329 31.44843726 56.66965991 31.47142519 54.3671875 31.4675293 C53.64527725 31.46767532 52.923367 31.46782135 52.17958069 31.4679718 C49.78253217 31.46727259 47.38556041 31.45947986 44.98852539 31.45166016 C43.33085676 31.449796 41.67318757 31.44837209 40.01551819 31.44737244 C35.6441395 31.44354703 31.27279383 31.43371656 26.90142822 31.42266846 C22.44413703 31.41245482 17.98684053 31.40787492 13.52954102 31.40283203 C4.77757271 31.39209431 -3.97436872 31.37501762 -12.72631836 31.35400391 C-11.35648333 34.51516166 -10.73725456 35.3467131 -7.72631836 37.35400391 C-5.25162416 37.56630568 -2.88551437 37.66520822 -0.40917969 37.67285156 C0.70338448 37.68792 0.70338448 37.68792 1.83842468 37.70329285 C4.28949205 37.73417814 6.74044993 37.75117463 9.19165039 37.76806641 C10.89131109 37.78677378 12.59096247 37.80634686 14.29060364 37.82675171 C18.76380926 37.87812454 23.23704502 37.91772263 27.71038818 37.95489502 C32.27518193 37.99490242 36.83984979 38.04600963 41.40454102 38.09619141 C50.36083286 38.19301166 59.3171957 38.27739689 68.27368164 38.35400391 C67.50256772 41.94368822 66.51204677 43.53676913 63.77368164 46.04150391 C62.83008789 46.94449219 62.83008789 46.94449219 61.86743164 47.86572266 C55.18685081 51.69900774 45.40658624 50.51442184 37.89868164 50.52197266 C36.7341748 50.52530106 35.56966797 50.52862946 34.36987305 50.53205872 C31.91919344 50.53709861 29.46850704 50.53946795 27.01782227 50.53930664 C23.28528506 50.5414971 19.55304184 50.55969534 15.82055664 50.57861328 C13.42993264 50.58154709 11.03930725 50.58353197 8.64868164 50.58447266 C7.54218262 50.59165817 6.43568359 50.59884369 5.2956543 50.60624695 C-5.25877731 50.57536209 -13.49634095 49.33051782 -21.72631836 42.35400391 C-26.22738123 37.20816067 -26.9282121 32.1741551 -26.97631836 25.54150391 C-26.99694336 24.8421875 -27.01756836 24.14287109 -27.03881836 23.42236328 C-27.09197187 16.31972477 -24.45929583 11.49266515 -19.72631836 6.35400391 C-13.63956224 1.61986026 -7.62946383 0.1326014 0 0 Z " fill="#CACBCD" transform="translate(106.726318359375,86.64599609375)"/>
<path d="M0 0 C4.78306186 -0.09992737 9.56549757 -0.17195954 14.34936523 -0.21972656 C15.97186893 -0.23966813 17.59430242 -0.26683174 19.21655273 -0.30175781 C28.92082553 -0.50523933 37.08022689 -0.34140482 46 4 C46.97102661 4.44134277 46.97102661 4.44134277 47.96166992 4.89160156 C49.55680684 5.63661141 51.12401612 6.44066717 52.6875 7.25 C54.20923828 8.03117187 54.20923828 8.03117187 55.76171875 8.828125 C56.50035156 9.21484375 57.23898438 9.6015625 58 10 C58 10.99 58 11.98 58 13 C57.43782776 13.00364563 56.87565552 13.00729126 56.29644775 13.01104736 C50.3900979 13.05319621 44.48450193 13.12276273 38.57861328 13.20751953 C36.38109923 13.23556467 34.18348739 13.25686014 31.98583984 13.27099609 C11.80949564 13.29723266 11.80949564 13.29723266 -6.5 21.125 C-9.28344349 22.91568198 -12.0109216 24.5733944 -15 26 C-15 26.66 -15 27.32 -15 28 C-15.66 28 -16.32 28 -17 28 C-17.40798828 28.87011719 -17.40798828 28.87011719 -17.82421875 29.7578125 C-18.99021079 31.9813322 -20.32427073 33.85666267 -21.8125 35.875 C-30.09409193 48.38895341 -31.74329998 61.36771516 -29.55859375 75.9453125 C-26.08153291 89.54739954 -16.83710301 100.6441861 -5.0625 107.875 C3.58178313 112.90838005 12.15872906 114.44558023 22.0390625 114.51171875 C23.54936539 114.53864555 23.54936539 114.53864555 25.09017944 114.56611633 C28.26841186 114.6197813 31.44649796 114.65397353 34.625 114.6875 C36.79559309 114.72071179 38.96616698 114.75520495 41.13671875 114.79101562 C46.42434775 114.8754818 51.71199678 114.94401458 57 115 C57 116.32 57 117.64 57 119 C54.1079732 120.32100495 51.21077206 121.63026087 48.3125 122.9375 C47.08756836 123.49727539 47.08756836 123.49727539 45.83789062 124.06835938 C44.64389648 124.60493164 44.64389648 124.60493164 43.42578125 125.15234375 C42.69786377 125.48226318 41.96994629 125.81218262 41.2199707 126.15209961 C34.71036807 128.63839126 27.92822 128.21977118 21.0625 128.25 C19.31163086 128.2809375 19.31163086 128.2809375 17.52539062 128.3125 C11.52599195 128.33984769 7.20969542 128.28990215 2 125 C0.42871961 124.52101291 -1.15512885 124.08086587 -2.75 123.6875 C-9.58750343 121.74279403 -15.13936826 117.90708783 -21 114 C-21 113.34 -21 112.68 -21 112 C-21.5878125 111.74863281 -22.175625 111.49726563 -22.78125 111.23828125 C-25.27682175 109.84550617 -26.66530515 108.36828502 -28.5 106.1875 C-29.0671875 105.52105469 -29.634375 104.85460937 -30.21875 104.16796875 C-30.8065625 103.45253906 -31.394375 102.73710937 -32 102 C-32.65613281 101.24976563 -33.31226563 100.49953125 -33.98828125 99.7265625 C-36.45012774 96.38992396 -38.04988102 92.98006858 -39.6875 89.1875 C-39.99494141 88.51396484 -40.30238281 87.84042969 -40.61914062 87.14648438 C-44.11365607 79.15574336 -44.20041915 71.15858041 -44.25 62.5625 C-44.270625 61.67240234 -44.29125 60.78230469 -44.3125 59.86523438 C-44.34859118 53.68913203 -43.32556738 48.71045041 -41 43 C-40.60039063 42.00871094 -40.20078125 41.01742187 -39.7890625 39.99609375 C-34.41284337 28.17923627 -34.41284337 28.17923627 -31 24 C-30.34 24 -29.68 24 -29 24 C-28.773125 23.443125 -28.54625 22.88625 -28.3125 22.3125 C-25.22054681 16.86477295 -20.12529225 13.38462696 -15 10 C-14.34 10 -13.68 10 -13 10 C-13 9.34 -13 8.68 -13 8 C-8.72886302 5.81673892 -4.49797113 3.68673918 0 2 C0 1.34 0 0.68 0 0 Z " fill="#281D1E" transform="translate(85,48)"/>
<path d="M0 0 C3.58656521 -0.00122651 7.16917463 -0.06139047 10.75512695 -0.12426758 C13.04613268 -0.13240026 15.33715383 -0.13708061 17.62817383 -0.13793945 C18.69386093 -0.16152023 19.75954803 -0.18510101 20.85752869 -0.20939636 C28.06382616 -0.12004843 28.06382616 -0.12004843 31.17703247 2.22982788 C35.13208008 6.67847235 35.13208008 6.67847235 35.13208008 9.6862793 C35.79208008 9.6862793 36.45208008 9.6862793 37.13208008 9.6862793 C36.80208008 11.0062793 36.47208008 12.3262793 36.13208008 13.6862793 C35.44018585 13.69214554 34.74829163 13.69801178 34.03543091 13.70405579 C27.47493139 13.7622612 20.91474807 13.83449383 14.35457039 13.92199421 C10.98290581 13.96648421 7.61135613 14.00578524 4.23950195 14.03271484 C0.35184038 14.06645194 -3.53520706 14.11877948 -7.42260742 14.17456055 C-8.61779999 14.18095047 -9.81299255 14.18734039 -11.04440308 14.19392395 C-18.15496581 14.31734048 -24.18833852 15.2511107 -30.86791992 17.6862793 C-32.06416992 18.0781543 -33.26041992 18.4700293 -34.49291992 18.8737793 C-35.27666992 19.1419043 -36.06041992 19.4100293 -36.86791992 19.6862793 C-36.86791992 20.3462793 -36.86791992 21.0062793 -36.86791992 21.6862793 C-37.61041992 22.4081543 -38.35291992 23.1300293 -39.11791992 23.8737793 C-45.29547918 30.19173763 -47.86791992 37.10849438 -47.86791992 45.86987305 C-47.31758813 55.78731063 -45.3323039 64.64303761 -37.86791992 71.6862793 C-30.49714452 76.29051705 -23.83617823 78.75450095 -15.15966797 78.89160156 C-14.03888351 78.91154678 -12.91809906 78.931492 -11.76335144 78.95204163 C-10.56422623 78.96875412 -9.36510101 78.98546661 -8.12963867 79.00268555 C-6.89373489 79.02346664 -5.65783112 79.04424774 -4.38447571 79.06565857 C-1.11139866 79.1198786 2.16170748 79.17015508 5.43487549 79.21850586 C8.77996267 79.268895 12.12495732 79.32456746 15.4699707 79.37963867 C22.02393779 79.48663872 28.57797021 79.58843821 35.13208008 79.6862793 C35.70361328 81.5546875 35.70361328 81.5546875 36.13208008 83.6862793 C34.98754883 85.79174805 34.98754883 85.79174805 33.31958008 87.8737793 C32.77688477 88.56858398 32.23418945 89.26338867 31.67504883 89.97924805 C29.85622949 91.99146083 28.84793604 92.63831143 26.13659668 92.81999207 C25.31848511 92.82380386 24.50037354 92.82761566 23.6574707 92.83154297 C22.26461853 92.84111275 22.26461853 92.84111275 20.84362793 92.85087585 C19.33125549 92.85254509 19.33125549 92.85254509 17.78833008 92.85424805 C16.74946655 92.85757645 15.71060303 92.86090485 14.64025879 92.86433411 C12.43441206 92.86940637 10.22855763 92.87174234 8.02270508 92.87158203 C4.67361438 92.87375238 1.32486174 92.89186008 -2.02416992 92.91088867 C-4.17000213 92.91382589 -6.31583591 92.91580849 -8.46166992 92.91674805 C-9.45372437 92.92393356 -10.44577881 92.93111908 -11.46789551 92.93852234 C-23.36710961 92.90013899 -36.06324904 90.61547448 -45.61791992 82.9987793 C-47.86791992 80.6862793 -47.86791992 80.6862793 -47.86791992 78.6862793 C-48.4531543 78.49163086 -49.03838867 78.29698242 -49.64135742 78.09643555 C-52.77106859 76.11428514 -53.95343622 73.37219608 -55.49291992 70.1237793 C-55.7985083 69.48754639 -56.10409668 68.85131348 -56.41894531 68.19580078 C-61.60067709 57.09852851 -62.94546541 43.99468785 -59.76245117 32.01831055 C-54.23475878 17.6076889 -54.23475878 17.6076889 -47.86791992 14.6862793 C-47.19482505 13.35617948 -46.52850532 12.02263597 -45.86791992 10.6862793 C-32.46604986 -0.18744895 -16.35255058 -0.03276159 0 0 Z " fill="#9D9EA1" transform="translate(119.867919921875,65.313720703125)"/>
<path d="M0 0 C16.5 0 33 0 50 0 C45.65270146 4.34729854 39.68280388 5.42933151 33.8203125 6.47265625 C33.21960938 6.64667969 32.61890625 6.82070313 32 7 C31.67 7.66 31.34 8.32 31 9 C30.34 8.67 29.68 8.34 29 8 C29 8.66 29 9.32 29 10 C28.34 10 27.68 10 27 10 C27 10.66 27 11.32 27 12 C26.34 12 25.68 12 25 12 C24.87625 12.804375 24.7525 13.60875 24.625 14.4375 C24.315625 15.7059375 24.315625 15.7059375 24 17 C23.34 17.33 22.68 17.66 22 18 C20.86649466 20.01669827 20.86649466 20.01669827 20 22 C19.34 22 18.68 22 18 22 C17.855625 22.61875 17.71125 23.2375 17.5625 23.875 C17 26 17 26 16 28 C15.34 28 14.68 28 14 28 C13.9175 28.70125 13.835 29.4025 13.75 30.125 C13 33 13 33 11 35.8125 C8.51543446 39.77227634 8.31819772 42.38613312 8 47 C7.34 47 6.68 47 6 47 C5.67 55.25 5.34 63.5 5 72 C4.34 70.68 3.68 69.36 3 68 C2.34 86.15 1.68 104.3 1 123 C2.65 123 4.3 123 6 123 C6 123.99 6 124.98 6 126 C4.02 126 2.04 126 0 126 C0 84.42 0 42.84 0 0 Z " fill="#E91C25" transform="translate(34,49)"/>
<path d="M0 0 C1.03898437 -0.02900391 2.07796875 -0.05800781 3.1484375 -0.08789062 C13.25695034 -0.16981747 21.32705442 2.97591641 30.1875 7.5625 C31.70923828 8.34367187 31.70923828 8.34367187 33.26171875 9.140625 C34.00035156 9.52734375 34.73898438 9.9140625 35.5 10.3125 C35.5 11.3025 35.5 12.2925 35.5 13.3125 C34.93782776 13.31614563 34.37565552 13.31979126 33.79644775 13.32354736 C27.8900979 13.36569621 21.98450193 13.43526273 16.07861328 13.52001953 C13.88109923 13.54806467 11.68348739 13.56936014 9.48583984 13.58349609 C-10.69050436 13.60973266 -10.69050436 13.60973266 -29 21.4375 C-31.78344349 23.22818198 -34.5109216 24.8858944 -37.5 26.3125 C-37.5 26.9725 -37.5 27.6325 -37.5 28.3125 C-38.16 28.3125 -38.82 28.3125 -39.5 28.3125 C-39.90798828 29.18261719 -39.90798828 29.18261719 -40.32421875 30.0703125 C-41.49021079 32.2938322 -42.82427073 34.16916267 -44.3125 36.1875 C-48.31825882 42.06326908 -50.34081073 48.59608383 -52.5 55.3125 C-53.16 53.9925 -53.82 52.6725 -54.5 51.3125 C-55.16 51.3125 -55.82 51.3125 -56.5 51.3125 C-56.5 49.9925 -56.5 48.6725 -56.5 47.3125 C-57.16 47.3125 -57.82 47.3125 -58.5 47.3125 C-57.625 41.4375 -57.625 41.4375 -56.5 40.3125 C-54.16702567 40.27157063 -51.83294775 40.27008277 -49.5 40.3125 C-49.2226499 37.12759993 -49.2226499 37.12759993 -51.5 34.3125 C-51.5 34.9725 -51.5 35.6325 -51.5 36.3125 C-52.16 36.3125 -52.82 36.3125 -53.5 36.3125 C-53.83 36.9725 -54.16 37.6325 -54.5 38.3125 C-55.49 38.3125 -56.48 38.3125 -57.5 38.3125 C-57.83 38.9725 -58.16 39.6325 -58.5 40.3125 C-58.5 38.6625 -58.5 37.0125 -58.5 35.3125 C-57.84 35.3125 -57.18 35.3125 -56.5 35.3125 C-56.37625 34.136875 -56.37625 34.136875 -56.25 32.9375 C-55.5 30.3125 -55.5 30.3125 -53.4375 29 C-52.798125 28.773125 -52.15875 28.54625 -51.5 28.3125 C-51.5 27.6525 -51.5 26.9925 -51.5 26.3125 C-50.84 26.3125 -50.18 26.3125 -49.5 26.3125 C-49.4175 25.52875 -49.335 24.745 -49.25 23.9375 C-48.5 21.3125 -48.5 21.3125 -46.4375 20 C-45.798125 19.773125 -45.15875 19.54625 -44.5 19.3125 C-44.5 18.6525 -44.5 17.9925 -44.5 17.3125 C-43.51 17.3125 -42.52 17.3125 -41.5 17.3125 C-41.5 16.6525 -41.5 15.9925 -41.5 15.3125 C-40.84 15.3125 -40.18 15.3125 -39.5 15.3125 C-39.5 14.6525 -39.5 13.9925 -39.5 13.3125 C-38.84 13.3125 -38.18 13.3125 -37.5 13.3125 C-37.5 13.9725 -37.5 14.6325 -37.5 15.3125 C-36.84 15.3125 -36.18 15.3125 -35.5 15.3125 C-34.84 16.9625 -34.18 18.6125 -33.5 20.3125 C-32.51 20.3125 -31.52 20.3125 -30.5 20.3125 C-30.37625 19.52875 -30.2525 18.745 -30.125 17.9375 C-29.5 15.3125 -29.5 15.3125 -27.5 13.3125 C-26.51 13.3125 -25.52 13.3125 -24.5 13.3125 C-24.5 13.9725 -24.5 14.6325 -24.5 15.3125 C-21.86 14.6525 -19.22 13.9925 -16.5 13.3125 C-17.16 12.9825 -17.82 12.6525 -18.5 12.3125 C-19.4375 9 -19.4375 9 -19.5 5.3125 C-13.89181242 -0.60725356 -7.600698 0.06868101 0 0 Z " fill="#272325" transform="translate(107.5,47.6875)"/>
<path d="M0 0 C2.30532868 2.96300503 4.253695 6.03464727 6.1875 9.25 C14.22209274 21.83752863 25.41536157 29.62224904 40 33 C43.68350715 33.41572617 47.33434597 33.48691954 51.0390625 33.51171875 C52.54936539 33.53864555 52.54936539 33.53864555 54.09017944 33.56611633 C57.26841186 33.6197813 60.44649796 33.65397353 63.625 33.6875 C65.79559309 33.72071179 67.96616698 33.75520495 70.13671875 33.79101562 C75.42434775 33.8754818 80.71199678 33.94401458 86 34 C86 35.32 86 36.64 86 38 C83.1079732 39.32100495 80.21077206 40.63026087 77.3125 41.9375 C76.08756836 42.49727539 76.08756836 42.49727539 74.83789062 43.06835938 C74.04189453 43.42607422 73.24589844 43.78378906 72.42578125 44.15234375 C71.69786377 44.48226318 70.96994629 44.81218262 70.2199707 45.15209961 C63.62794341 47.66987271 56.76234018 47.18373315 49.8125 47.1875 C48.01135742 47.20586914 48.01135742 47.20586914 46.17382812 47.22460938 C45.02978516 47.22654297 43.88574219 47.22847656 42.70703125 47.23046875 C41.13659058 47.23663208 41.13659058 47.23663208 39.53442383 47.24291992 C36.36436009 46.93907507 35.67355935 45.78417321 33.66796875 43.44921875 C31.59227764 41.64574943 29.99721159 41.31831523 27.3125 40.8125 C26.10013672 40.57466797 26.10013672 40.57466797 24.86328125 40.33203125 C24.24839844 40.22246094 23.63351563 40.11289063 23 40 C22.24749869 36.89593208 22.028384 34.77698287 22.4375 31.5625 C22.37741257 28.0566155 22.37741257 28.0566155 20.43359375 26.4296875 C19.0319779 25.41371548 17.60441362 24.43282019 16.15625 23.484375 C14.06556177 22.0451331 12.56083607 20.57061476 10.875 18.6875 C7.75881657 15.77454592 6.18932835 15.19949183 2 15 C2 15.66 2 16.32 2 17 C1.34 17 0.68 17 0 17 C-0.33 17.66 -0.66 18.32 -1 19 C-1.33 17.68 -1.66 16.36 -2 15 C-0.35 13.68 1.3 12.36 3 11 C2.690625 10.29875 2.38125 9.5975 2.0625 8.875 C0.96697322 5.91063343 0.43577008 3.12301892 0 0 Z " fill="#231D1E" transform="translate(56,129)"/>
<path d="M0 0 C9.19765204 -0.02327317 18.39529378 -0.0409909 27.59296894 -0.05181217 C31.86480571 -0.05700845 36.13662218 -0.06404628 40.40844727 -0.07543945 C44.53871546 -0.08638489 48.66896425 -0.09230129 52.79924583 -0.09487724 C54.3671213 -0.09671064 55.93499583 -0.10029034 57.50286293 -0.10573006 C66.05027621 -0.13417881 74.49749904 -0.00879311 83 1 C83 1.33 83 1.66 83 2 C55.94 2 28.88 2 1 2 C1 44.24 1 86.48 1 130 C27.4 130 53.8 130 81 130 C81 130.33 81 130.66 81 131 C36.61294227 132.09684107 36.61294227 132.09684107 18.41601562 132.17724609 C16.4101142 132.18732359 14.40426746 132.20685887 12.3984375 132.2265625 C11.2021875 132.22785156 10.0059375 132.22914063 8.7734375 132.23046875 C7.74653809 132.23457764 6.71963867 132.23868652 5.66162109 132.24291992 C2.7944436 131.98123935 1.34277564 131.66159317 -1 130 C-1.60621643 127.5493927 -1.60621643 127.5493927 -1.74438477 124.42114258 C-1.79958282 123.24484283 -1.85478088 122.06854309 -1.91165161 120.8565979 C-2.06898544 113.98863661 -2.12189833 107.13086293 -2.08984375 100.26171875 C-2.08579175 98.64580844 -2.08196752 97.02989755 -2.07835388 95.41398621 C-2.02927577 78.27301934 -1.84782755 61.13292236 -1.62768555 43.9934082 C-1.5712183 39.58132949 -1.52157098 35.16919861 -1.47328281 30.75702381 C-1.43453683 27.3110467 -1.39143664 23.86513446 -1.34705925 20.41922569 C-1.32675276 18.78811201 -1.30802128 17.1569779 -1.29092598 15.52582741 C-1.26697929 13.2838146 -1.23695406 11.04196449 -1.20532227 8.80004883 C-1.18977798 7.53042801 -1.1742337 6.26080719 -1.15821838 4.95271301 C-1 2 -1 2 0 0 Z " fill="#E7A6A9" transform="translate(32,46)"/>
<path d="M0 0 C0.33 1.98 0.66 3.96 1 6 C1.66 6 2.32 6 3 6 C3 6.66 3 7.32 3 8 C2.01 8.495 2.01 8.495 1 9 C0.01 10.485 0.01 10.485 -1 12 C-2.37562854 10.71034824 -3.70766393 9.37310707 -5 8 C-5 7.34 -5 6.68 -5 6 C-5.66 6 -6.32 6 -7 6 C-4.525 9.465 -4.525 9.465 -2 13 C-3 15 -3 15 -4 16 C-4 16.969375 -4 17.93875 -4 18.9375 C-4 22 -4 22 -5 24 C-5.66 24 -6.32 24 -7 24 C-6.98952637 24.70608398 -6.97905273 25.41216797 -6.96826172 26.13964844 C-6.9266521 29.34306266 -6.90065796 32.54641996 -6.875 35.75 C-6.85824219 36.86117187 -6.84148437 37.97234375 -6.82421875 39.1171875 C-6.81777344 40.18710938 -6.81132813 41.25703125 -6.8046875 42.359375 C-6.79421387 43.34389648 -6.78374023 44.32841797 -6.77294922 45.34277344 C-7.00510382 48.05973111 -7.60963727 49.68112513 -9 52 C-13 52 -13 52 -15 51 C-15 49.02 -15 47.04 -15 45 C-15.66 44.67 -16.32 44.34 -17 44 C-18.54263313 39.3721006 -18.1162663 34.84034944 -18 30 C-18.00644531 29.03191406 -18.01289062 28.06382813 -18.01953125 27.06640625 C-17.76641781 17.99048145 -14.5682002 9.60549163 -8.0859375 3.0703125 C-5.31158289 0.98069222 -3.50728644 0 0 0 Z " fill="#9D9DA0" transform="translate(78,77)"/>
<path d="M0 0 C1.65 0.66 3.3 1.32 5 2 C5 2.99 5 3.98 5 5 C4.15674164 5.00546844 4.15674164 5.00546844 3.29644775 5.01104736 C-2.6099021 5.05319621 -8.51549807 5.12276273 -14.42138672 5.20751953 C-16.61890077 5.23556467 -18.81651261 5.25686014 -21.01416016 5.27099609 C-41.19050436 5.29723266 -41.19050436 5.29723266 -59.5 13.125 C-62.28344349 14.91568198 -65.0109216 16.5733944 -68 18 C-68 18.66 -68 19.32 -68 20 C-68.66 20 -69.32 20 -70 20 C-70.40798828 20.87011719 -70.40798828 20.87011719 -70.82421875 21.7578125 C-71.99021079 23.9813322 -73.32427073 25.85666267 -74.8125 27.875 C-78.81825882 33.75076908 -80.84081073 40.28358383 -83 47 C-83.66 45.68 -84.32 44.36 -85 43 C-85.66 43 -86.32 43 -87 43 C-87 41.68 -87 40.36 -87 39 C-87.66 39 -88.32 39 -89 39 C-88.125 33.125 -88.125 33.125 -87 32 C-84.66702567 31.95907063 -82.33294775 31.95758277 -80 32 C-79.7226499 28.81509993 -79.7226499 28.81509993 -82 26 C-82 26.66 -82 27.32 -82 28 C-82.66 28 -83.32 28 -84 28 C-84.33 28.66 -84.66 29.32 -85 30 C-85.99 30 -86.98 30 -88 30 C-88.33 30.66 -88.66 31.32 -89 32 C-89 30.35 -89 28.7 -89 27 C-88.34 27 -87.68 27 -87 27 C-86.9175 26.21625 -86.835 25.4325 -86.75 24.625 C-86 22 -86 22 -83.9375 20.6875 C-83.298125 20.460625 -82.65875 20.23375 -82 20 C-82 19.34 -82 18.68 -82 18 C-81.34 18 -80.68 18 -80 18 C-79.9175 17.21625 -79.835 16.4325 -79.75 15.625 C-79 13 -79 13 -76.9375 11.6875 C-76.298125 11.460625 -75.65875 11.23375 -75 11 C-75 10.34 -75 9.68 -75 9 C-74.01 9 -73.02 9 -72 9 C-72 8.34 -72 7.68 -72 7 C-71.34 7 -70.68 7 -70 7 C-70 6.34 -70 5.68 -70 5 C-69.34 5 -68.68 5 -68 5 C-68 5.66 -68 6.32 -68 7 C-67.34 7 -66.68 7 -66 7 C-65.34 8.65 -64.68 10.3 -64 12 C-63.01 12 -62.02 12 -61 12 C-60.87625 11.21625 -60.7525 10.4325 -60.625 9.625 C-60 7 -60 7 -58 5 C-57.01 5 -56.02 5 -55 5 C-55 5.66 -55 6.32 -55 7 C-54.11393066 6.68712036 -54.11393066 6.68712036 -53.20996094 6.36791992 C-42.11656432 3.0102894 -30.73887121 3.43466593 -19.25 3.3125 C-17.08852163 3.27927392 -14.92706236 3.2447795 -12.765625 3.20898438 C-7.51054773 3.12468891 -2.25545007 3.05609036 3 3 C2.01 2.01 1.02 1.02 0 0 Z " fill="#231C1E" transform="translate(138,56)"/>
<path d="M0 0 C52 0 52 0 55 2 C52.7101766 3.0044134 50.4183401 4.00367612 48.125 5 C47.47402344 5.28617188 46.82304688 5.57234375 46.15234375 5.8671875 C41.2265625 8 41.2265625 8 39 8 C39 8.66 39 9.32 39 10 C37.13671875 11.47265625 37.13671875 11.47265625 34.6875 13.0625 C33.48673828 13.85333984 33.48673828 13.85333984 32.26171875 14.66015625 C30 16 30 16 27 17 C25.89163577 18.88316159 25.89163577 18.88316159 25 21 C24.34 21.99 23.68 22.98 23 24 C22.34 24 21.68 24 21 24 C20.7525 24.680625 20.505 25.36125 20.25 26.0625 C19.05518059 28.87032562 17.61190892 31.41426081 16.078125 34.046875 C11.70315823 41.97253944 8.72333483 49.87516823 8.8046875 59.02734375 C8.81113281 60.31318359 8.81757812 61.59902344 8.82421875 62.92382812 C8.84092399 64.26172154 8.85785381 65.59961217 8.875 66.9375 C8.88504678 68.30272783 8.89416964 69.6679628 8.90234375 71.03320312 C8.92582395 74.35565199 8.95866641 77.67773321 9 81 C5.5694334 75.85415009 5.84315833 70.72149564 5.875 64.6875 C5.87113281 63.96626953 5.86726563 63.24503906 5.86328125 62.50195312 C5.87209692 57.58721582 6.307243 52.86579323 7 48 C7.66 48 8.32 48 9 48 C8.896875 46.845 8.79375 45.69 8.6875 44.5 C8.65544783 39.9886573 10.23934468 37.37037912 12.80859375 33.76171875 C14.18316035 31.89968672 14.18316035 31.89968672 15 29 C15.66 29 16.32 29 17 29 C17.28875 28.030625 17.5775 27.06125 17.875 26.0625 C19 23 19 23 21 22 C21.33 21.34 21.66 20.68 22 20 C23 18 23 18 25 17 C25.65213292 14.97536745 25.65213292 14.97536745 26 13 C26.66 13 27.32 13 28 13 C28 12.34 28 11.68 28 11 C28.66 11 29.32 11 30 11 C30 10.34 30 9.68 30 9 C36.27012355 6.45276231 42.57873572 4.14042143 49 2 C33.16 1.67 17.32 1.34 1 1 C1 42.58 1 84.16 1 127 C16.51 127 32.02 127 48 127 C48 127.33 48 127.66 48 128 C32.16 128 16.32 128 0 128 C0 85.76 0 43.52 0 0 Z " fill="#B5191F" transform="translate(33,48)"/>
<path d="M0 0 C0.5775 0.226875 1.155 0.45375 1.75 0.6875 C1.09 1.3475 0.43 2.0075 -0.25 2.6875 C-0.25 3.6775 -0.25 4.6675 -0.25 5.6875 C-0.58 6.0175 -0.91 6.3475 -1.25 6.6875 C2.9205563 7.69520792 6.82655565 7.80832358 11.1105957 7.80102539 C12.19433723 7.80124443 12.19433723 7.80124443 13.29997253 7.8014679 C15.67527322 7.80077422 18.05049435 7.79300745 20.42578125 7.78515625 C22.07773292 7.78329013 23.72968515 7.78186714 25.38163757 7.78086853 C29.72007792 7.77705861 34.05848455 7.76724139 38.39691162 7.75616455 C42.82775415 7.7459176 47.25860215 7.74136388 51.68945312 7.73632812 C60.37631752 7.72561771 69.06315456 7.70855966 77.75 7.6875 C77.75 8.0175 77.75 8.3475 77.75 8.6875 C76.43241447 8.69963028 76.43241447 8.69963028 75.08821106 8.71200562 C66.80445382 8.78999228 58.5208582 8.87729537 50.23730946 8.97502708 C45.97879599 9.02494261 41.72030677 9.07127302 37.46166992 9.109375 C33.3507559 9.14628781 29.24004699 9.19266395 25.1293087 9.24556351 C23.56209605 9.26407562 21.99483949 9.27919532 20.42756081 9.29084396 C18.2298959 9.30776114 16.03269746 9.33680856 13.83520508 9.36865234 C12.58500076 9.38197601 11.33479645 9.39529968 10.04670715 9.4090271 C5.61720252 9.78318742 2.86971051 10.37473596 -0.0625 13.8125 C-0.454375 14.43125 -0.84625 15.05 -1.25 15.6875 C-0.33989166 15.68527939 0.57021667 15.68305878 1.50790405 15.68077087 C10.07207595 15.6607591 18.63624004 15.64552132 27.20042992 15.63568783 C31.60368215 15.63046245 36.00691511 15.62337103 40.41015625 15.61206055 C44.65709244 15.60121946 48.90401006 15.59522056 53.15095901 15.59262276 C54.77372149 15.59077072 56.39648292 15.58715432 58.01923752 15.58176994 C60.28677339 15.57454332 62.55423187 15.57350975 64.82177734 15.57397461 C66.11417328 15.571754 67.40656921 15.56953339 68.73812866 15.56724548 C71.75 15.6875 71.75 15.6875 73.75 16.6875 C73.75 20.3175 73.75 23.9475 73.75 27.6875 C73.42 27.6875 73.09 27.6875 72.75 27.6875 C72.75 24.3875 72.75 21.0875 72.75 17.6875 C47.34 17.6875 21.93 17.6875 -4.25 17.6875 C-4.25 16.6975 -4.25 15.7075 -4.25 14.6875 C-6.23 14.6875 -8.21 14.6875 -10.25 14.6875 C-10.58 13.6975 -10.91 12.7075 -11.25 11.6875 C-10.59 11.6875 -9.93 11.6875 -9.25 11.6875 C-9.25 10.6975 -9.25 9.7075 -9.25 8.6875 C-9.91 8.3575 -10.57 8.0275 -11.25 7.6875 C-3.32142857 -0.46130952 -3.32142857 -0.46130952 0 0 Z " fill="#D9DADC" transform="translate(95.25,89.3125)"/>
<path d="M0 0 C3.63 0 7.26 0 11 0 C9.27403177 1.15064549 7.54605039 2.29830974 5.8125 3.4375 C5.214375 3.953125 4.61625 4.46875 4 5 C4 5.99 4 6.98 4 8 C4.66 8.66 5.32 9.32 6 10 C5.34 10 4.68 10 4 10 C4 10.66 4 11.32 4 12 C5.32 12.33 6.64 12.66 8 13 C4.49223216 14.60355101 1.85645121 15.22036864 -2 15 C-2 14.34 -2 13.68 -2 13 C-5.75151144 14.78907722 -5.75151144 14.78907722 -7.8125 18.1875 C-7.9053125 19.0846875 -7.9053125 19.0846875 -8 20 C-9.65 20 -11.3 20 -13 20 C-13 18.35 -13 16.7 -13 15 C-13.66 15 -14.32 15 -15 15 C-15 14.34 -15 13.68 -15 13 C-15.66 13 -16.32 13 -17 13 C-17 13.66 -17 14.32 -17 15 C-17.66 15 -18.32 15 -19 15 C-19 15.66 -19 16.32 -19 17 C-19.99 17 -20.98 17 -22 17 C-22 17.66 -22 18.32 -22 19 C-22.639375 19.45375 -23.27875 19.9075 -23.9375 20.375 C-26.2676157 22.21084873 -26.60401298 23.12909413 -27 26 C-27.66 26 -28.32 26 -29 26 C-29 26.66 -29 27.32 -29 28 C-30.33333333 29.33333333 -31.66666667 30.66666667 -33 32 C-33.33 32.99 -33.66 33.98 -34 35 C-34.66 35 -35.32 35 -36 35 C-35.938125 35.928125 -35.87625 36.85625 -35.8125 37.8125 C-36 41 -36 41 -37.41015625 42.37890625 C-44.00478332 49.10315744 -42.6938857 64.09101823 -43 73 C-43.33 73 -43.66 73 -44 73 C-44.08834684 69.68767302 -44.14083584 66.37565565 -44.1875 63.0625 C-44.21263672 62.13630859 -44.23777344 61.21011719 -44.26367188 60.25585938 C-44.33038525 53.9180883 -43.41192424 48.85399421 -41 43 C-40.60039063 42.00871094 -40.20078125 41.01742187 -39.7890625 39.99609375 C-34.41284337 28.17923627 -34.41284337 28.17923627 -31 24 C-30.34 24 -29.68 24 -29 24 C-28.773125 23.443125 -28.54625 22.88625 -28.3125 22.3125 C-25.22054681 16.86477295 -20.12529225 13.38462696 -15 10 C-14.34 10 -13.68 10 -13 10 C-13 9.34 -13 8.68 -13 8 C-8.72886302 5.81673892 -4.49797113 3.68673918 0 2 C0 1.34 0 0.68 0 0 Z " fill="#231D1D" transform="translate(85,48)"/>
<path d="M0 0 C2.71995718 1.35997859 3.67031241 3.34062482 5 6 C3.875 7.5 3.875 7.5 2 9 C-1.1875 9.1875 -1.1875 9.1875 -4 9 C-4.76956136 11.34533951 -4.76956136 11.34533951 -5 14 C-3.66621425 15.8354799 -3.66621425 15.8354799 -2 17 C-2.66 17 -3.32 17 -4 17 C-4 17.66 -4 18.32 -4 19 C-3.01 18.67 -2.02 18.34 -1 18 C-1.33 25.92 -1.66 33.84 -2 42 C-2.66 41.34 -3.32 40.68 -4 40 C-6.04836882 40.56362302 -6.04836882 40.56362302 -8 42 C-8.81584568 45.05908413 -8.81584568 45.05908413 -9 48 C-12.76131589 44.23868411 -13.25875148 40.34624458 -13.32885742 35.12304688 C-13.32345947 34.40181641 -13.31806152 33.68058594 -13.3125 32.9375 C-13.30903564 32.19177734 -13.30557129 31.44605469 -13.30200195 30.67773438 C-13.17871415 24.3294344 -12.61716259 17.85899774 -10 12 C-9.01 11.67 -8.02 11.34 -7 11 C-5.78130071 8.49552484 -5.78130071 8.49552484 -5 6 C-4.01 6 -3.02 6 -2 6 C-1.67 5.01 -1.34 4.02 -1 3 C-0.34 3.33 0.32 3.66 1 4 C0.67 2.68 0.34 1.36 0 0 Z " fill="#211D1E" transform="translate(55,80)"/>
<path d="M0 0 C0.33 0 0.66 0 1 0 C0.97643433 0.87736816 0.97643433 0.87736816 0.95239258 1.77246094 C0.88989733 4.43154164 0.85096431 7.09046764 0.8125 9.75 C0.78736328 10.67039062 0.76222656 11.59078125 0.73632812 12.5390625 C0.72666016 13.42851563 0.71699219 14.31796875 0.70703125 15.234375 C0.6913208 16.05131836 0.67561035 16.86826172 0.65942383 17.70996094 C1.07691255 20.51716111 2.29606539 21.77967847 4 24 C3.6875 27.25 3.6875 27.25 3 30 C4.65 30.33 6.3 30.66 8 31 C10.20256663 24.39230012 10.09897788 17.48130442 9.9375 10.578125 C10.00143156 7.94094803 10.40920776 5.56625381 11 3 C11.33 3 11.66 3 12 3 C11.96519531 3.85980469 11.93039063 4.71960938 11.89453125 5.60546875 C11.63120662 17.10397757 12.10171928 27.25753218 19.8359375 36.2109375 C21.25607478 38.3935646 21.25011362 39.4553103 20.875 42 C20.58625 42.99 20.2975 43.98 20 45 C18.35 45.66 16.7 46.32 15 47 C15.33 47.99 15.66 48.98 16 50 C14.68 49.34 13.36 48.68 12 48 C12 47.34 12 46.68 12 46 C11.41476563 45.80535156 10.82953125 45.61070312 10.2265625 45.41015625 C7.09685133 43.42800584 5.9144837 40.68591678 4.375 37.4375 C4.06941162 36.80126709 3.76382324 36.16503418 3.44897461 35.50952148 C-1.82728977 24.20979681 -2.34877441 12.23241712 0 0 Z " fill="#ADAEB0" transform="translate(60,98)"/>
<path d="M0 0 C3.06708139 1.80024342 4.58578006 3.0421164 6 6.3125 C6 10.08170026 4.72046406 12.68651366 3 16 C-0.46530209 17.73265104 -4.21107035 17.4643626 -8 17 C-10.5625 15.5 -10.5625 15.5 -12 13 C-12.7099846 8.0301078 -12.79117716 6.15080314 -9.9375 2 C-6.23727467 -0.51930235 -4.3968344 -0.7066341 0 0 Z " fill="#DC2029" transform="translate(189,103)"/>
<path d="M0 0 C0.88751953 0.30744141 0.88751953 0.30744141 1.79296875 0.62109375 C2.58316406 0.89050781 3.37335938 1.15992188 4.1875 1.4375 C5.35345703 1.83775391 5.35345703 1.83775391 6.54296875 2.24609375 C10.96218871 3.60207062 15.08993811 4.13234665 19.70825195 4.20532227 C20.82903641 4.22526749 21.94982086 4.24521271 23.10456848 4.26576233 C24.3036937 4.28247482 25.50281891 4.29918732 26.73828125 4.31640625 C27.97418503 4.33718735 29.21008881 4.35796844 30.48344421 4.37937927 C33.75652126 4.43359931 37.0296274 4.48387578 40.30279541 4.53222656 C43.6478826 4.5826157 46.99287724 4.63828816 50.33789062 4.69335938 C56.89185771 4.80035943 63.44589013 4.90215892 70 5 C70.56225586 6.89355469 70.56225586 6.89355469 71 9 C69.63510623 11.33370072 67.8580962 13.00594554 66 15 C65.01 14.01 65.01 14.01 64 13 C63.01 13 62.02 13 61 13 C60.505 12.01 60.505 12.01 60 11 C49.11 10.67 38.22 10.34 27 10 C27.33 9.34 27.66 8.68 28 8 C27.40050537 7.93006836 26.80101074 7.86013672 26.18334961 7.78808594 C23.43255221 7.45800086 20.68529206 7.10420044 17.9375 6.75 C16.99455078 6.64042969 16.05160156 6.53085938 15.08007812 6.41796875 C9.13072256 5.6302492 4.99448863 4.35274965 0 1 C0 0.67 0 0.34 0 0 Z " fill="#BBBDBD" transform="translate(85,140)"/>
<path d="M0 0 C0.33 0 0.66 0 1 0 C1.04898438 1.16015625 1.09796875 2.3203125 1.1484375 3.515625 C1.46776332 19.93329093 1.46776332 19.93329093 7 35 C6.08481946 38.11161384 4.24341499 39.75658501 2 42 C1.67 42.99 1.34 43.98 1 45 C0.16180842 43.37750059 -0.6704116 41.75191503 -1.5 40.125 C-1.9640625 39.22007812 -2.428125 38.31515625 -2.90625 37.3828125 C-4 35 -4 35 -4 33 C-4.99 32.67 -5.98 32.34 -7 32 C-7 27.38 -7 22.76 -7 18 C-5.02 17.34 -3.04 16.68 -1 16 C-0.67 10.72 -0.34 5.44 0 0 Z " fill="#211A1A" transform="translate(53,103)"/>
<path d="M0 0 C1 3 1 3 0.55859375 5.08984375 C-0.39462411 10.05590881 0.00087486 15.09936186 0.12695312 20.13867188 C0.13791016 20.96044922 0.14886719 21.78222656 0.16015625 22.62890625 C0.17699463 23.37213135 0.19383301 24.11535645 0.21118164 24.88110352 C-0.03009599 27.30196886 -0.7979672 28.90333466 -2 31 C-6 31 -6 31 -8 30 C-8 28.02 -8 26.04 -8 24 C-8.66 23.67 -9.32 23.34 -10 23 C-11.01646891 19.95059327 -11.19844676 17.69630097 -11.25 14.5 C-11.27578125 13.5409375 -11.3015625 12.581875 -11.328125 11.59375 C-10.95389709 8.63556747 -10.30935919 7.79886927 -8 6 C-8 7.32 -8 8.64 -8 10 C-7.01 10 -6.02 10 -5 10 C-4.67 7.03 -4.34 4.06 -4 1 C-2.68 0.67 -1.36 0.34 0 0 Z " fill="#939396" transform="translate(71,98)"/>
<path d="M0 0 C1.65 0.66 3.3 1.32 5 2 C5 2.99 5 3.98 5 5 C4.15674164 5.00546844 4.15674164 5.00546844 3.29644775 5.01104736 C-2.6099021 5.05319621 -8.51549807 5.12276273 -14.42138672 5.20751953 C-16.61890077 5.23556467 -18.81651261 5.25686014 -21.01416016 5.27099609 C-41.19050436 5.29723266 -41.19050436 5.29723266 -59.5 13.125 C-62.28344349 14.91568198 -65.0109216 16.5733944 -68 18 C-68 18.66 -68 19.32 -68 20 C-68.66 20 -69.32 20 -70 20 C-70.28875 20.639375 -70.5775 21.27875 -70.875 21.9375 C-72 24 -72 24 -74 25 C-73.649375 24.071875 -73.29875 23.14375 -72.9375 22.1875 C-71.67617372 19.0197047 -71.67617372 19.0197047 -73 16 C-73.66 15.34 -74.32 14.68 -75 14 C-74.625 11.375 -74.625 11.375 -74 9 C-73.34 9 -72.68 9 -72 9 C-72 8.34 -72 7.68 -72 7 C-71.34 7 -70.68 7 -70 7 C-70 6.34 -70 5.68 -70 5 C-69.34 5 -68.68 5 -68 5 C-68 5.66 -68 6.32 -68 7 C-67.34 7 -66.68 7 -66 7 C-65.34 8.65 -64.68 10.3 -64 12 C-63.01 12 -62.02 12 -61 12 C-60.87625 11.21625 -60.7525 10.4325 -60.625 9.625 C-60 7 -60 7 -58 5 C-57.01 5 -56.02 5 -55 5 C-55 5.66 -55 6.32 -55 7 C-54.11393066 6.68712036 -54.11393066 6.68712036 -53.20996094 6.36791992 C-42.11656432 3.0102894 -30.73887121 3.43466593 -19.25 3.3125 C-17.08852163 3.27927392 -14.92706236 3.2447795 -12.765625 3.20898438 C-7.51054773 3.12468891 -2.25545007 3.05609036 3 3 C2.01 2.01 1.02 1.02 0 0 Z " fill="#7C7A7B" transform="translate(138,56)"/>
<path d="M0 0 C-2.2898234 1.0044134 -4.5816599 2.00367612 -6.875 3 C-7.52597656 3.28617188 -8.17695312 3.57234375 -8.84765625 3.8671875 C-13.7734375 6 -13.7734375 6 -16 6 C-16 6.66 -16 7.32 -16 8 C-17.86328125 9.47265625 -17.86328125 9.47265625 -20.3125 11.0625 C-21.11300781 11.58972656 -21.91351563 12.11695313 -22.73828125 12.66015625 C-25 14 -25 14 -28 15 C-29.10836423 16.88316159 -29.10836423 16.88316159 -30 19 C-30.66 19.99 -31.32 20.98 -32 22 C-32.66 22 -33.32 22 -34 22 C-34.2475 22.680625 -34.495 23.36125 -34.75 24.0625 C-35.94481941 26.87032562 -37.38809108 29.41426081 -38.921875 32.046875 C-43.29684177 39.97253944 -46.27666517 47.87516823 -46.1953125 57.02734375 C-46.18886719 58.31318359 -46.18242188 59.59902344 -46.17578125 60.92382812 C-46.15907601 62.26172154 -46.14214619 63.59961217 -46.125 64.9375 C-46.11495322 66.30272783 -46.10583036 67.6679628 -46.09765625 69.03320312 C-46.07417605 72.35565199 -46.04133359 75.67773321 -46 79 C-49.4305666 73.85415009 -49.15684167 68.72149564 -49.125 62.6875 C-49.12886719 61.96626953 -49.13273437 61.24503906 -49.13671875 60.50195312 C-49.12790308 55.58721582 -48.692757 50.86579323 -48 46 C-47.34 46 -46.68 46 -46 46 C-46.103125 44.845 -46.20625 43.69 -46.3125 42.5 C-46.34455217 37.9886573 -44.76065532 35.37037912 -42.19140625 31.76171875 C-40.81683965 29.89968672 -40.81683965 29.89968672 -40 27 C-39.34 27 -38.68 27 -38 27 C-37.71125 26.030625 -37.4225 25.06125 -37.125 24.0625 C-36 21 -36 21 -34 20 C-33.67 19.34 -33.34 18.68 -33 18 C-32 16 -32 16 -30 15 C-29.34786708 12.97536745 -29.34786708 12.97536745 -29 11 C-28.34 11 -27.68 11 -27 11 C-27 10.34 -27 9.68 -27 9 C-26.34 9 -25.68 9 -25 9 C-25 8.34 -25 7.68 -25 7 C-21.39648246 5.536071 -17.77026441 4.14593868 -14.12109375 2.80078125 C-12.68738858 2.25951134 -11.26278108 1.69360593 -9.84765625 1.10546875 C-6.09256386 -0.42593764 -3.87209606 -1.26785446 0 0 Z " fill="#BB323A" transform="translate(88,50)"/>
<path d="M0 0 C0 0.66 0 1.32 0 2 C-0.99 2 -1.98 2 -3 2 C-2.67 2.99 -2.34 3.98 -2 5 C-1.01 5.33 -0.02 5.66 1 6 C1 6.66 1 7.32 1 8 C4.51956234 9.20984956 5.84921582 9.06643956 9.31835938 7.5378418 C15.34599217 5.18255884 21.52537082 5.62930504 27.90625 5.70703125 C29.24002604 5.71263683 30.57380831 5.71690237 31.90759277 5.71989441 C35.3929189 5.73126773 38.87786112 5.76066831 42.36303711 5.79400635 C45.92947193 5.8248709 49.49596969 5.8384345 53.0625 5.85351562 C60.04182289 5.88554673 67.02089294 5.93665021 74 6 C74 6.33 74 6.66 74 7 C73.30810577 7.00586624 72.61621155 7.01173248 71.90335083 7.01777649 C65.34285132 7.0759819 58.78266799 7.14821453 52.22249031 7.23571491 C48.85082574 7.28020492 45.47927606 7.31950594 42.10742188 7.34643555 C38.2197603 7.38017264 34.33271286 7.43250019 30.4453125 7.48828125 C29.25011993 7.49467117 28.05492737 7.5010611 26.82351685 7.50764465 C19.71295411 7.63106118 13.6795814 8.5648314 7 11 C5.80375 11.391875 4.6075 11.78375 3.375 12.1875 C2.59125 12.455625 1.8075 12.72375 1 13 C1 13.66 1 14.32 1 15 C-0.62102968 16.71108689 -2.29503463 18.37253306 -4 20 C-4.763125 20.763125 -5.52625 21.52625 -6.3125 22.3125 C-6.869375 22.869375 -7.42625 23.42625 -8 24 C-8 23.01 -8 22.02 -8 21 C-8.66 20.67 -9.32 20.34 -10 20 C-9.01 19.34 -8.02 18.68 -7 18 C-7.66 17.21625 -8.32 16.4325 -9 15.625 C-11 13 -11 13 -11 11 C-10.34 11 -9.68 11 -9 11 C-7.61767557 12.62626404 -6.28062485 14.2925002 -5 16 C-4.34 15.01 -3.68 14.02 -3 13 C-2.34 13 -1.68 13 -1 13 C-1 12.34 -1 11.68 -1 11 C-1.66 11 -2.32 11 -3 11 C-3.33 9.02 -3.66 7.04 -4 5 C-5.98 5.66 -7.96 6.32 -10 7 C-3.18421053 0 -3.18421053 0 0 0 Z " fill="#D5D6D7" transform="translate(82,72)"/>
<path d="M0 0 C0.66 0.33 1.32 0.66 2 1 C0.68 2.65 -0.64 4.3 -2 6 C-1.08989166 5.99777939 -0.17978333 5.99555878 0.75790405 5.99327087 C9.32207595 5.9732591 17.88624004 5.95802132 26.45042992 5.94818783 C30.85368215 5.94296245 35.25691511 5.93587103 39.66015625 5.92456055 C43.90709244 5.91371946 48.15401006 5.90772056 52.40095901 5.90512276 C54.02372149 5.90327072 55.64648292 5.89965432 57.26923752 5.89426994 C59.53677339 5.88704332 61.80423187 5.88600975 64.07177734 5.88647461 C65.36417328 5.884254 66.65656921 5.88203339 67.98812866 5.87974548 C71 6 71 6 73 7 C73 10.63 73 14.26 73 18 C72.67 18 72.34 18 72 18 C72 14.7 72 11.4 72 8 C46.92 8 21.84 8 -4 8 C-2.875 2.375 -2.875 2.375 0 0 Z " fill="#EFEFF0" transform="translate(96,99)"/>
<path d="M0 0 C0.50674255 0.32342377 1.01348511 0.64684753 1.5355835 0.98007202 C4.82751472 2.34247677 7.92471039 2.30797047 11.43066406 2.31884766 C12.17251953 2.32889328 12.914375 2.3389389 13.67871094 2.34928894 C16.12434127 2.38011449 18.56986216 2.39715415 21.015625 2.4140625 C22.71385642 2.43277467 24.41207854 2.45234812 26.11029053 2.4727478 C30.57526165 2.52406987 35.04026292 2.56369517 39.50537109 2.60089111 C44.06355242 2.64093029 48.62160835 2.69202303 53.1796875 2.7421875 C62.11970357 2.83894767 71.05979046 2.92335218 80 3 C79.67 4.32 79.34 5.64 79 7 C78.505 6.01 78.505 6.01 78 5 C77.08180481 5.00666183 76.16360962 5.01332367 75.21759033 5.02018738 C66.56577144 5.08029082 57.91402264 5.12597054 49.262043 5.15543652 C44.81392768 5.17109453 40.36598481 5.19233521 35.91796875 5.22631836 C31.62562107 5.25890708 27.33343932 5.27685199 23.04097748 5.28463173 C21.40309792 5.29017613 19.76522747 5.30100298 18.12741852 5.31719017 C15.83376927 5.33895838 13.54080619 5.34196725 11.24707031 5.34057617 C9.28849091 5.35056892 9.28849091 5.35056892 7.29034424 5.36076355 C3.8364025 4.98206266 2.39277297 4.48040036 0 2 C0 1.34 0 0.68 0 0 Z " fill="#F2F2F3" transform="translate(95,122)"/>
<path d="M0 0 C3.76939327 -0.38674411 5.43656493 -0.43852258 8.484375 1.93359375 C9.23203125 2.75988281 9.9796875 3.58617187 10.75 4.4375 C13.54620925 7.65348453 13.54620925 7.65348453 17 10 C16.67 11.98 16.34 13.96 16 16 C15.34 15.34 14.68 14.68 14 14 C14 14.99 14 15.98 14 17 C12.68 16.34 11.36 15.68 10 15 C10 12 10 12 12 9 C11.01 9 10.02 9 9 9 C8.34 10.32 7.68 11.64 7 13 C6.67 12.34 6.34 11.68 6 11 C4.35 11 2.7 11 1 11 C1 10.34 1 9.68 1 9 C0.34 9 -0.32 9 -1 9 C-2.625 6.5 -2.625 6.5 -4 4 C-3.34 4 -2.68 4 -2 4 C-2 3.34 -2 2.68 -2 2 C-1.34 2 -0.68 2 0 2 C0 1.34 0 0.68 0 0 Z " fill="#231E1F" transform="translate(58,144)"/>
<path d="M0 0 C-1.25125384 3.75376152 -2.5652404 4.24073289 -6 6 C-6.66 6 -7.32 6 -8 6 C-8 6.66 -8 7.32 -8 8 C-8.66 8 -9.32 8 -10 8 C-10 8.66 -10 9.32 -10 10 C-10.99 10 -11.98 10 -13 10 C-13 10.66 -13 11.32 -13 12 C-13.639375 12.45375 -14.27875 12.9075 -14.9375 13.375 C-17.2676157 15.21084873 -17.60401298 16.12909413 -18 19 C-18.66 19 -19.32 19 -20 19 C-20 19.66 -20 20.32 -20 21 C-21.33333333 22.33333333 -22.66666667 23.66666667 -24 25 C-24.33 25.99 -24.66 26.98 -25 28 C-25.66 28 -26.32 28 -27 28 C-26.938125 28.928125 -26.87625 29.85625 -26.8125 30.8125 C-27 34 -27 34 -28.41015625 35.37890625 C-35.00478332 42.10315744 -33.6938857 57.09101823 -34 66 C-34.33 66 -34.66 66 -35 66 C-35.08834684 62.68767302 -35.14083584 59.37565565 -35.1875 56.0625 C-35.21263672 55.13630859 -35.23777344 54.21011719 -35.26367188 53.25585938 C-35.33038525 46.9180883 -34.41192424 41.85399421 -32 36 C-31.60039063 35.00871094 -31.20078125 34.01742187 -30.7890625 32.99609375 C-25.41284337 21.17923627 -25.41284337 21.17923627 -22 17 C-21.34 17 -20.68 17 -20 17 C-19.773125 16.443125 -19.54625 15.88625 -19.3125 15.3125 C-16.22054681 9.86477295 -11.12529225 6.38462696 -6 3 C-5.34 3 -4.68 3 -4 3 C-4 2.34 -4 1.68 -4 1 C-2 0 -2 0 0 0 Z " fill="#4D0F11" transform="translate(76,55)"/>
<path d="M0 0 C2.59526459 3.14922457 4.06355967 6.30499887 5.625 10.0625 C8.99940133 17.54523495 13.58193401 24.73579317 20.2734375 29.6796875 C20.84320313 30.11539063 21.41296875 30.55109375 22 31 C22 31.66 22 32.32 22 33 C22.66 33.226875 23.32 33.45375 24 33.6875 C26.48555347 34.77492964 28.34443183 35.87004769 30.5625 37.375 C34.87069543 40.16506942 39.36275298 41.57251577 44.265625 43.0078125 C46.98173638 43.99337291 48.80348559 45.14865214 51 47 C48.03 47 45.06 47 42 47 C42 46.34 42 45.68 42 45 C39.69 44.67 37.38 44.34 35 44 C34.67 43.01 34.34 42.02 34 41 C32.02936915 40.54018614 30.05760139 40.0841672 28.078125 39.6640625 C24.82759536 38.62535942 23.08876429 36.61095536 21 34 C21 33.34 21 32.68 21 32 C20.40832031 31.90332031 19.81664063 31.80664062 19.20703125 31.70703125 C11.40423624 29.2073748 6.49141572 17.7212008 3 11 C1.33558736 7.32417703 0 4.09448874 0 0 Z " fill="#B5353B" transform="translate(42,129)"/>
<path d="M0 0 C-0.66 1.32 -1.32 2.64 -2 4 C-1.01 4.33 -0.02 4.66 1 5 C0.01 5.495 0.01 5.495 -1 6 C-1 7.32 -1 8.64 -1 10 C-2.26607607 10.53229326 -3.53810412 11.05044544 -4.8125 11.5625 C-5.52019531 11.85253906 -6.22789063 12.14257812 -6.95703125 12.44140625 C-9.78313882 13.21412782 -11.45258965 12.27370517 -14 11 C-14 10.34 -14 9.68 -14 9 C-15.32 8.67 -16.64 8.34 -18 8 C-18 7.01 -18 6.02 -18 5 C-17.01 5 -16.02 5 -15 5 C-15 4.34 -15 3.68 -15 3 C-13.68 3 -12.36 3 -11 3 C-10.401875 2.505 -9.80375 2.01 -9.1875 1.5 C-6.11578816 -0.60631669 -3.63355201 -0.209628 0 0 Z M-11 5 C-11.99 5.99 -12.98 6.98 -14 8 C-13.34 8.66 -12.68 9.32 -12 10 C-9.89179203 9.6814823 -9.89179203 9.6814823 -8 9 C-8 8.34 -8 7.68 -8 7 C-8.66 7 -9.32 7 -10 7 C-10.33 6.34 -10.66 5.68 -11 5 Z " fill="#919294" transform="translate(97,69)"/>
<path d="M0 0 C0.99 0.66 1.98 1.32 3 2 C3 2.66 3 3.32 3 4 C3.556875 4.061875 4.11375 4.12375 4.6875 4.1875 C7.99068042 5.3480769 9.71894733 7.40213446 12 10 C12 10.66 12 11.32 12 12 C13.3921875 12.1546875 13.3921875 12.1546875 14.8125 12.3125 C18.30103836 13.06492984 18.62417252 13.62417252 21 16 C23.30988315 16.74386068 25.64315944 17.42190703 28 18 C28 18.66 28 19.32 28 20 C17.77 19.67 7.54 19.34 -3 19 C-3 18.34 -3 17.68 -3 17 C3.37305598 16.25492456 9.58311325 15.89650183 16 16 C16.33 15.34 16.66 14.68 17 14 C15.72125 13.9175 14.4425 13.835 13.125 13.75 C10.89453125 13.48046875 10.89453125 13.48046875 9 13 C7.8125 11.0625 7.8125 11.0625 7 9 C6.175 8.731875 5.35 8.46375 4.5 8.1875 C2 7 2 7 0.6875 3.375 C0.460625 2.26125 0.23375 1.1475 0 0 Z " fill="#DB212C" transform="translate(56,156)"/>
<path d="M0 0 C3.06708139 1.80024342 4.58578006 3.0421164 6 6.3125 C6 10.08170026 4.72046406 12.68651366 3 16 C-0.46530209 17.73265104 -4.21107035 17.4643626 -8 17 C-10.5625 15.5 -10.5625 15.5 -12 13 C-12.7099846 8.0301078 -12.79117716 6.15080314 -9.9375 2 C-6.23727467 -0.51930235 -4.3968344 -0.7066341 0 0 Z M-7 3 C-9.4294516 6.6441774 -9.16179575 8.71241272 -9 13 C-7.7625 13.350625 -6.525 13.70125 -5.25 14.0625 C-4.55390625 14.25972656 -3.8578125 14.45695312 -3.140625 14.66015625 C-0.74034878 15.041222 0.73563397 14.8614436 3 14 C4.4783226 11.04335481 4.06032783 8.25770263 4 5 C2.68 5 1.36 5 0 5 C0 4.34 0 3.68 0 3 C-3.41642759 2.74984127 -3.41642759 2.74984127 -7 3 Z " fill="#DF9EA5" transform="translate(189,103)"/>
<path d="M0 0 C2 1 2 1 3 3 C3.66 2.67 4.32 2.34 5 2 C4.7215625 2.55042969 4.443125 3.10085937 4.15625 3.66796875 C0.87573194 10.28441902 -2.24162064 16.80662987 -4 24 C-4.66 22.68 -5.32 21.36 -6 20 C-6.66 20 -7.32 20 -8 20 C-8 18.68 -8 17.36 -8 16 C-8.66 16 -9.32 16 -10 16 C-9.125 10.125 -9.125 10.125 -8 9 C-5.66702567 8.95907063 -3.33294775 8.95758277 -1 9 C-0.8549963 6.11932596 -0.8549963 6.11932596 -1.625 3.9375 C-1.74875 3.298125 -1.8725 2.65875 -2 2 C-1.34 1.34 -0.68 0.68 0 0 Z " fill="#242123" transform="translate(59,79)"/>
<path d="M0 0 C15.18 0 30.36 0 46 0 C46 1.32 46 2.64 46 4 C43.03 4.99 40.06 5.98 37 7 C37.33 6.01 37.66 5.02 38 4 C39.65 3.67 41.3 3.34 43 3 C41.36587158 2.96241577 41.36587158 2.96241577 39.69873047 2.92407227 C35.63953802 2.82958085 31.58050012 2.72946363 27.52148438 2.62768555 C25.76794054 2.58449402 24.01435892 2.54280845 22.26074219 2.50268555 C19.73360835 2.44459876 17.20666196 2.38101701 14.6796875 2.31640625 C13.90132538 2.29969376 13.12296326 2.28298126 12.3210144 2.26576233 C8.12448711 2.1527014 4.13461263 1.80794586 0 1 C0 0.67 0 0.34 0 0 Z " fill="#989697" transform="translate(96,163)"/>
<path d="M0 0 C0.33 1.98 0.66 3.96 1 6 C1.66 6 2.32 6 3 6 C3 6.66 3 7.32 3 8 C2.01 8.495 2.01 8.495 1 9 C0.01 10.485 0.01 10.485 -1 12 C-2.37562854 10.71034824 -3.70766393 9.37310707 -5 8 C-5 7.34 -5 6.68 -5 6 C-5.66 6 -6.32 6 -7 6 C-4.525 9.465 -4.525 9.465 -2 13 C-2.33 13.66 -2.66 14.32 -3 15 C-3.99 15 -4.98 15 -6 15 C-6.33 15.66 -6.66 16.32 -7 17 C-8.98226472 11.60383493 -9.33244151 8.51304356 -7 3 C-4.45813243 0.45813243 -3.63382765 0 0 0 Z " fill="#929294" transform="translate(78,77)"/>
<path d="M0 0 C0 0.33 0 0.66 0 1 C-15.84 1 -31.68 1 -48 1 C-44.9097921 -2.0902079 -41.16843884 -1.39928841 -37.01171875 -1.484375 C-36.11636917 -1.5084845 -35.22101959 -1.53259399 -34.29853821 -1.55743408 C-32.40137229 -1.60578477 -30.50407424 -1.64916465 -28.60668945 -1.68798828 C-25.70919984 -1.74953903 -22.81289151 -1.83265774 -19.91601562 -1.91796875 C-18.07294763 -1.96224558 -16.22984867 -2.0052555 -14.38671875 -2.046875 C-13.08960213 -2.08575836 -13.08960213 -2.08575836 -11.76628113 -2.12542725 C-7.36819594 -2.19953623 -4.0022807 -2.08565961 0 0 Z " fill="#322E2F" transform="translate(142,59)"/>
<path d="M0 0 C0.33 0 0.66 0 1 0 C1.06058594 1.2065625 1.12117188 2.413125 1.18359375 3.65625 C1.26807818 5.27084124 1.35272211 6.88542414 1.4375 8.5 C1.47681641 9.29148437 1.51613281 10.08296875 1.55664062 10.8984375 C1.82705218 15.97385441 2.3127142 20.96375445 3 26 C2.13375 25.690625 2.13375 25.690625 1.25 25.375 C-1.55436855 24.90760524 -2.65386819 25.46287916 -5 27 C-5.33 27.66 -5.66 28.32 -6 29 C-7.17571451 25.32589215 -7.07366746 21.83070817 -7 18 C-5.02 17.34 -3.04 16.68 -1 16 C-0.67 10.72 -0.34 5.44 0 0 Z " fill="#4B4A4B" transform="translate(53,103)"/>
<path d="M0 0 C0.33 0 0.66 0 1 0 C1 24.42 1 48.84 1 74 C2.65 74 4.3 74 6 74 C6 74.99 6 75.98 6 77 C4.02 77 2.04 77 0 77 C0 51.59 0 26.18 0 0 Z " fill="#DD222C" transform="translate(34,98)"/>
<path d="M0 0 C2.30532868 2.96300503 4.253695 6.03464727 6.1875 9.25 C12.47420791 19.09917572 19.73412602 24.52486721 30 30 C27 31 27 31 24.58203125 29.84765625 C18.94647459 26.21514653 14.36836537 22.48827477 9.79296875 17.6015625 C7.35392786 15.42289853 5.22949955 15 2 15 C2 15.66 2 16.32 2 17 C1.34 17 0.68 17 0 17 C-0.33 17.66 -0.66 18.32 -1 19 C-1.33 17.68 -1.66 16.36 -2 15 C-0.35 13.68 1.3 12.36 3 11 C2.690625 10.29875 2.38125 9.5975 2.0625 8.875 C0.96697322 5.91063343 0.43577008 3.12301892 0 0 Z " fill="#8D8D8E" transform="translate(56,129)"/>
<path d="M0 0 C2.5625 2.0625 2.5625 2.0625 5 5 C4.8125 8.8125 4.8125 8.8125 4 12 C2.35 12.66 0.7 13.32 -1 14 C-0.67 14.99 -0.34 15.98 0 17 C-1.32 16.34 -2.64 15.68 -4 15 C-4 14.34 -4 13.68 -4 13 C-5.32 12.34 -6.64 11.68 -8 11 C-7.67 10.34 -7.34 9.68 -7 9 C-6.34 9.33 -5.68 9.66 -5 10 C-4.67 9.01 -4.34 8.02 -4 7 C-2.4375 5.3125 -2.4375 5.3125 -1 4 C-0.67 4.66 -0.34 5.32 0 6 C0.66 6 1.32 6 2 6 C1.34 4.02 0.68 2.04 0 0 Z " fill="#A7A8A9" transform="translate(76,131)"/>
<path d="M0 0 C2 1 2 1 3.0625 3.625 C4 7 4 7 4.4375 10.6875 C4.65558987 13.91562985 4.65558987 13.91562985 6.33984375 15.33203125 C8.60440255 17.60724679 9.72128043 20.12202218 11.125 23 C11.64320312 24.051875 12.16140625 25.10375 12.6953125 26.1875 C14 29 14 29 15 32 C15.66 32 16.32 32 17 32 C17 32.66 17 33.32 17 34 C17.66 34 18.32 34 19 34 C18.67 34.99 18.34 35.98 18 37 C16.9152722 35.77206376 15.83229185 34.5425838 14.75 33.3125 C14.14671875 32.62800781 13.5434375 31.94351563 12.921875 31.23828125 C11.97054687 30.13033203 11.97054687 30.13033203 11 29 C10.34 28.2471875 9.68 27.494375 9 26.71875 C6.54518833 23.38174039 4.90758995 19.96865476 3.25 16.1875 C2.93417969 15.51396484 2.61835937 14.84042969 2.29296875 14.14648438 C0.10890606 9.20634257 -0.31396608 5.39176369 0 0 Z " fill="#4C1011" transform="translate(42,121)"/>
<path d="M0 0 C3.49020141 0.32720638 5.7262301 1.38217853 8.5625 3.3125 C12.86962078 6.15930174 17.33484577 7.56434604 22.265625 9.0078125 C24.98173638 9.99337291 26.80348559 11.14865214 29 13 C26.03 13 23.06 13 20 13 C20 12.34 20 11.68 20 11 C17.69 10.67 15.38 10.34 13 10 C12.67 9.01 12.34 8.02 12 7 C10.00721256 6.54263895 8.01337004 6.08873595 6.01171875 5.671875 C2.96024102 4.65274069 1.67180263 2.64702083 0 0 Z " fill="#A63038" transform="translate(64,163)"/>
<path d="M0 0 C1.77226453 0.28284018 3.542788 0.57660498 5.3125 0.875 C6.29863281 1.03742188 7.28476563 1.19984375 8.30078125 1.3671875 C11 2 11 2 14 4 C11.69 4 9.38 4 7 4 C7 4.99 7 5.98 7 7 C6.01 7 5.02 7 4 7 C4 7.66 4 8.32 4 9 C4.99 9.33 5.98 9.66 7 10 C5.02 10.33 3.04 10.66 1 11 C0.12132271 7.26562152 -0.08912219 3.83225427 0 0 Z " fill="#201E1E" transform="translate(78,158)"/>
<path d="M0 0 C7.75 0.75 7.75 0.75 10 3 C8.68 3 7.36 3 6 3 C6 3.66 6 4.32 6 5 C6.99 5.66 7.98 6.32 9 7 C6.59454362 8.20272819 5.05003047 8.10071472 2.375 8.0625 C1.14910156 8.04896484 1.14910156 8.04896484 -0.1015625 8.03515625 C-1.04128906 8.01775391 -1.04128906 8.01775391 -2 8 C-2 4 -2 4 0 2 C0 1.34 0 0.68 0 0 Z " fill="#1B1A1C" transform="translate(84,161)"/>
<path d="M0 0 C-2.20703372 0.96142017 -4.41553533 1.91919537 -6.625 2.875 C-7.24246094 3.14441406 -7.85992187 3.41382813 -8.49609375 3.69140625 C-11.35691427 4.92607616 -14.18454666 6.05847023 -17.15625 7 C-20.10779888 8.0379073 -22.31514642 9.34085963 -24.875 11.125 C-25.65617187 11.66382813 -26.43734375 12.20265625 -27.2421875 12.7578125 C-27.82226562 13.16773438 -28.40234375 13.57765625 -29 14 C-29 13.01 -29 12.02 -29 11 C-28.34 11 -27.68 11 -27 11 C-27 10.34 -27 9.68 -27 9 C-26.34 9 -25.68 9 -25 9 C-25 8.34 -25 7.68 -25 7 C-21.39648246 5.536071 -17.77026441 4.14593868 -14.12109375 2.80078125 C-12.68738858 2.25951134 -11.26278108 1.69360593 -9.84765625 1.10546875 C-6.09256386 -0.42593764 -3.87209606 -1.26785446 0 0 Z " fill="#C72D33" transform="translate(88,50)"/>
<path d="M0 0 C0.33 0 0.66 0 1 0 C0.85973717 2.31284456 0.71264442 4.62527591 0.5625 6.9375 C0.48128906 8.22527344 0.40007813 9.51304688 0.31640625 10.83984375 C0 14 0 14 -1 15 C-1.12562235 16.76747729 -1.17576558 18.54060292 -1.1875 20.3125 C-1.20167969 21.27800781 -1.21585938 22.24351563 -1.23046875 23.23828125 C-0.99525205 26.05689491 -0.32053982 27.55052809 1 30 C1.125 33.25 1.125 33.25 1 36 C-2.76106536 32.23893464 -3.25985631 28.3459673 -3.328125 23.12280273 C-3.32296875 22.40165283 -3.3178125 21.68050293 -3.3125 20.9375 C-3.31121094 20.19250244 -3.30992188 19.44750488 -3.30859375 18.67993164 C-3.19680978 12.17340615 -2.0059135 6.19683991 0 0 Z " fill="#321516" transform="translate(45,92)"/>
<path d="M0 0 C3.63 0 7.26 0 11 0 C10.01 0.66 9.02 1.32 8 2 C7.51402344 2.42539062 7.02804688 2.85078125 6.52734375 3.2890625 C2.05673622 7.04569094 -1.28603357 7.47688349 -7.05859375 7.17578125 C-7.69925781 7.11777344 -8.33992188 7.05976562 -9 7 C-6.09382458 4.73343156 -3.47723736 3.25566905 0 2 C0 1.34 0 0.68 0 0 Z " fill="#561C1D" transform="translate(85,48)"/>
<path d="M0 0 C1.134375 0.020625 2.26875 0.04125 3.4375 0.0625 C3.4375 0.3925 3.4375 0.7225 3.4375 1.0625 C6.4075 1.5575 6.4075 1.5575 9.4375 2.0625 C6.58728125 4.38490046 3.97394909 6.00156527 0.4375 7.0625 C-1.875 6.6875 -1.875 6.6875 -3.5625 6.0625 C-3.94468767 4.40635343 -4.27645102 2.73792976 -4.5625 1.0625 C-3.5625 0.0625 -3.5625 0.0625 0 0 Z " fill="#444243" transform="translate(123.5625,167.9375)"/>
<path d="M0 0 C1.12993322 3.38979965 0.88521113 3.98035883 -0.3125 7.1875 C-3.003736 14.47352917 -4.30400199 21.28267291 -4.625 29 C-4.66367187 29.77472656 -4.70234375 30.54945312 -4.7421875 31.34765625 C-4.83521357 33.23143415 -4.91863175 35.11568256 -5 37 C-5.33 37 -5.66 37 -6 37 C-6.08834684 33.68767302 -6.14083584 30.37565565 -6.1875 27.0625 C-6.21263672 26.13630859 -6.23777344 25.21011719 -6.26367188 24.25585938 C-6.33025828 17.93015119 -5.40795267 12.84376044 -3 7 C-2.71576172 6.30648437 -2.43152344 5.61296875 -2.13867188 4.8984375 C-1.44692318 3.25655643 -0.7268079 1.6266653 0 0 Z " fill="#5E1216" transform="translate(47,84)"/>
<path d="M0 0 C5.28 0 10.56 0 16 0 C12 4 12 4 8.3125 4.3125 C5 4 5 4 4 3 C2.33985384 2.63557767 0.67293936 2.30027117 -1 2 C-0.67 1.34 -0.34 0.68 0 0 Z " fill="#201E1F" transform="translate(121,166)"/>
<path d="M0 0 C0.33 0 0.66 0 1 0 C1.33 2.64 1.66 5.28 2 8 C3.258125 8.165 4.51625 8.33 5.8125 8.5 C6.52019531 8.5928125 7.22789062 8.685625 7.95703125 8.78125 C10.15471706 9.053233 10.15471706 9.053233 13 9 C13 9.99 13 10.98 13 12 C5.04532578 12.61189802 5.04532578 12.61189802 1.4375 10.5 C-0.65742367 6.85665449 -0.27769546 4.16543193 0 0 Z " fill="#D16F77" transform="translate(177,108)"/>
<path d="M0 0 C0.36923077 6.52307692 0.36923077 6.52307692 -1.5 8.9375 C-1.995 9.288125 -2.49 9.63875 -3 10 C-4.89865603 7.02819057 -6.35455571 4.48539917 -7 1 C-4 0 -4 0 0 0 Z " fill="#CC2B35" transform="translate(193,108)"/>
<path d="M0 0 C0.66 0 1.32 0 2 0 C3.38232443 1.62626404 4.71937515 3.2925002 6 5 C6.33 4.34 6.66 3.68 7 3 C9.5625 2.375 9.5625 2.375 12 2 C12 4 12 4 9.75 6.375 C8.8425 7.24125 7.935 8.1075 7 9 C5.8553125 10.1446875 5.8553125 10.1446875 4.6875 11.3125 C4.130625 11.869375 3.57375 12.42625 3 13 C3 12.01 3 11.02 3 10 C2.34 9.67 1.68 9.34 1 9 C1.99 8.34 2.98 7.68 4 7 C3.01 5.824375 3.01 5.824375 2 4.625 C0 2 0 2 0 0 Z " fill="#B7B8B9" transform="translate(71,83)"/>
<path d="M0 0 C0.33 0 0.66 0 1 0 C0.67 7.92 0.34 15.84 0 24 C-0.99 23.34 -1.98 22.68 -3 22 C-2.69088746 19.08293797 -2.37784575 16.1663891 -2.0625 13.25 C-1.97548828 12.425 -1.88847656 11.6 -1.79882812 10.75 C-1.71181641 9.95078125 -1.62480469 9.1515625 -1.53515625 8.328125 C-1.456604 7.5949707 -1.37805176 6.86181641 -1.29711914 6.10644531 C-1.0026123 4.01852006 -0.54882504 2.03447232 0 0 Z " fill="#0D0C0C" transform="translate(53,98)"/>
<path d="M0 0 C-1.65 0.66 -3.3 1.32 -5 2 C-4.67 2.99 -4.34 3.98 -4 5 C-6.31 4.34 -8.62 3.68 -11 3 C-7.18178484 -0.02823961 -4.81391924 -1.49397494 0 0 Z M-7 5 C-6.67 5.66 -6.34 6.32 -6 7 C-5.34 7 -4.68 7 -4 7 C-4.33 7.99 -4.66 8.98 -5 10 C-6.9375 9.625 -6.9375 9.625 -9 9 C-9.33 8.34 -9.66 7.68 -10 7 C-9.01 6.34 -8.02 5.68 -7 5 Z " fill="#B1B1B3" transform="translate(93,69)"/>
<path d="M0 0 C0.99 0 1.98 0 3 0 C3 0.66 3 1.32 3 2 C3.99 2 4.98 2 6 2 C6 2.66 6 3.32 6 4 C0.375 7 0.375 7 -3 7 C-2.25 2.25 -2.25 2.25 0 0 Z " fill="#565557" transform="translate(80,61)"/>
<path d="M0 0 C2 1 2 1 3 3 C3.66 2.67 4.32 2.34 5 2 C4.71382812 2.56203125 4.42765625 3.1240625 4.1328125 3.703125 C2.98584069 6.02870923 1.92160206 8.37770201 0.875 10.75 C0.52179687 11.54921875 0.16859375 12.3484375 -0.1953125 13.171875 C-0.46085937 13.77515625 -0.72640625 14.3784375 -1 15 C-2.13583456 11.28272326 -1.66670026 9.52948291 0 6 C-0.66 5.67 -1.32 5.34 -2 5 C-1.125 1.125 -1.125 1.125 0 0 Z " fill="#797B7A" transform="translate(59,79)"/>
<path d="M0 0 C0.33 0 0.66 0 1 0 C1.33 1.98 1.66 3.96 2 6 C2.66 5.67 3.32 5.34 4 5 C3.34 7.97 2.68 10.94 2 14 C1.34 12.68 0.68 11.36 0 10 C-0.66 10 -1.32 10 -2 10 C-2 8 -2 6 -2 4 C-1.34 4 -0.68 4 0 4 C0 2.68 0 1.36 0 0 Z " fill="#635E61" transform="translate(53,89)"/>
<path d="M0 0 C0.66 0 1.32 0 2 0 C2 0.99 2 1.98 2 3 C1.34 3 0.68 3 0 3 C-0.185625 4.2065625 -0.185625 4.2065625 -0.375 5.4375 C-0.58125 6.283125 -0.7875 7.12875 -1 8 C-1.99 8.495 -1.99 8.495 -3 9 C-4.13350534 11.01669827 -4.13350534 11.01669827 -5 13 C-6.06544301 9.80367098 -6.19353531 9.02974348 -5 6 C-3.70766393 4.62689293 -2.37562854 3.28965176 -1 2 C-0.67 1.34 -0.34 0.68 0 0 Z " fill="#E4202D" transform="translate(59,58)"/>
<path d="M0 0 C1.32 0 2.64 0 4 0 C4 0.66 4 1.32 4 2 C5.32 2.33 6.64 2.66 8 3 C4.49223216 4.60355101 1.85645121 5.22036864 -2 5 C-1.34 3.35 -0.68 1.7 0 0 Z " fill="#161816" transform="translate(85,58)"/>
<path d="M0 0 C1.26026798 2.52053595 0.91874445 3.8542098 0.5625 6.625 C0.46066406 7.44226563 0.35882813 8.25953125 0.25390625 9.1015625 C0.17011719 9.72804688 0.08632812 10.35453125 0 11 C-0.99 11.33 -1.98 11.66 -3 12 C-3.75 8.8125 -3.75 8.8125 -4 5 C-2.0625 2.0625 -2.0625 2.0625 0 0 Z " fill="#ADAEB0" transform="translate(70,80)"/>
<path d="M0 0 C5.95507399 0.3916035 10.62819824 1.37124595 16 4 C16 4.33 16 4.66 16 5 C10.61970091 5.41386916 5.87439483 4.23709068 1 2 C0.67 1.34 0.34 0.68 0 0 Z " fill="#3F0F10" transform="translate(79,169)"/>
<path d="M0 0 C0.98484375 0.01804687 1.9696875 0.03609375 2.984375 0.0546875 C4.10585937 0.08949219 4.10585937 0.08949219 5.25 0.125 C4.92 1.445 4.59 2.765 4.25 4.125 C3.92 3.465 3.59 2.805 3.25 2.125 C-1.04 2.125 -5.33 2.125 -9.75 2.125 C-5.76219998 0.13109999 -4.27852428 -0.10186963 0 0 Z " fill="#EFEFEF" transform="translate(169.75,124.875)"/>
<path d="M0 0 C0.99 0 1.98 0 3 0 C1.25 5.75 1.25 5.75 -1 8 C-1.45811675 9.97235333 -1.45811675 9.97235333 -1.625 12.125 C-1.74875 13.40375 -1.8725 14.6825 -2 16 C-2.33 16 -2.66 16 -3 16 C-3.37952295 9.80112515 -2.8352113 5.5522888 0 0 Z " fill="#DC202E" transform="translate(44,80)"/>
<path d="M0 0 C0.33 0 0.66 0 1 0 C0.67 2.97 0.34 5.94 0 9 C-0.99 9 -1.98 9 -3 9 C-3.33 9.66 -3.66 10.32 -4 11 C-4 9.35 -4 7.7 -4 6 C-3.34 6 -2.68 6 -2 6 C-1.855625 5.195625 -1.71125 4.39125 -1.5625 3.5625 C-1 1 -1 1 0 0 Z " fill="#301B1C" transform="translate(53,77)"/>
<path d="M0 0 C1.32 0 2.64 0 4 0 C4.33 1.32 4.66 2.64 5 4 C4.01 4.66 3.02 5.32 2 6 C2 6.66 2 7.32 2 8 C1.01 7.67 0.02 7.34 -1 7 C-0.67 4.69 -0.34 2.38 0 0 Z " fill="#1E2124" transform="translate(54,76)"/>
<path d="M0 0 C1.32 0 2.64 0 4 0 C5.37073786 1.63604196 6.70055256 3.30678061 8 5 C10.61857695 6.78962819 10.61857695 6.78962819 13 8 C12.01 8.495 12.01 8.495 11 9 C8.3984375 7.63671875 8.3984375 7.63671875 5.375 5.6875 C4.37210937 5.05199219 3.36921875 4.41648438 2.3359375 3.76171875 C1.56507812 3.18035156 0.79421875 2.59898437 0 2 C0 1.34 0 0.68 0 0 Z " fill="#4C0D0F" transform="translate(64,160)"/>
<path d="M0 0 C3.3 0.66 6.6 1.32 10 2 C8.68 2.33 7.36 2.66 6 3 C5.01 3.33 4.02 3.66 3 4 C3 4.66 3 5.32 3 6 C1.68 6 0.36 6 -1 6 C-1.33 5.01 -1.66 4.02 -2 3 C-1.34 3 -0.68 3 0 3 C0 2.01 0 1.02 0 0 Z " fill="#50504F" transform="translate(82,159)"/>
<path d="M0 0 C2 2 2 2 2 5 C1.34 5 0.68 5 0 5 C0.33 6.32 0.66 7.64 1 9 C0.34 9 -0.32 9 -1 9 C-2.625 6.5 -2.625 6.5 -4 4 C-3.34 4 -2.68 4 -2 4 C-2 3.34 -2 2.68 -2 2 C-1.34 2 -0.68 2 0 2 C0 1.34 0 0.68 0 0 Z " fill="#2F1B22" transform="translate(58,144)"/>
<path d="M0 0 C1.32 0.66 2.64 1.32 4 2 C4 3.65 4 5.3 4 7 C2.68 7.33 1.36 7.66 0 8 C-0.38063221 5.6739143 -0.71269945 3.33944736 -1 1 C-0.67 0.67 -0.34 0.34 0 0 Z " fill="#242121" transform="translate(54,135)"/>
<path d="M0 0 C0.33 0.99 0.66 1.98 1 3 C1.66 3 2.32 3 3 3 C3.66 4.98 4.32 6.96 5 9 C3.68 9.33 2.36 9.66 1 10 C0.67 9.34 0.34 8.68 0 8 C0.66 8 1.32 8 2 8 C2 7.01 2 6.02 2 5 C0.68 4.67 -0.64 4.34 -2 4 C-1 1 -1 1 0 0 Z " fill="#B3B4B6" transform="translate(71,122)"/>
<path d="M0 0 C0.99 0 1.98 0 3 0 C3.93423645 3.01031744 4.04449911 3.86650268 3 7 C1.68 7 0.36 7 -1 7 C-0.67 4.69 -0.34 2.38 0 0 Z " fill="#F01C21" transform="translate(182,108)"/>
<path d="M0 0 C0.99 0.33 1.98 0.66 3 1 C3.99 1 4.98 1 6 1 C6 2.98 6 4.96 6 7 C4 7 4 7 2.5625 5.6875 C2.046875 5.130625 1.53125 4.57375 1 4 C0.443125 3.443125 -0.11375 2.88625 -0.6875 2.3125 C-1.120625 1.879375 -1.55375 1.44625 -2 1 C-1.34 0.67 -0.68 0.34 0 0 Z " fill="#2E1918" transform="translate(73,163)"/>
<path d="M0 0 C2.18975773 3.28463659 2.99806563 6.20696275 4 10 C1.69 10 -0.62 10 -3 10 C-2.505 9.649375 -2.01 9.29875 -1.5 8.9375 C0.73063966 6.05625711 0.19980621 3.52990974 0 0 Z " fill="#DE202E" transform="translate(43,134)"/>
<path d="M0 0 C0.99 0.33 1.98 0.66 3 1 C3.33 2.98 3.66 4.96 4 7 C3.01 7.495 3.01 7.495 2 8 C-0.1519437 4.77208445 -0.20086443 3.71599191 0 0 Z " fill="#E22126" transform="translate(48,67)"/>
<path d="M0 0 C0.99 0 1.98 0 3 0 C3 0.66 3 1.32 3 2 C5.31 2 7.62 2 10 2 C10 2.33 10 2.66 10 3 C6.04 3 2.08 3 -2 3 C-1.34 2.01 -0.68 1.02 0 0 Z " fill="#4C4849" transform="translate(109,173)"/>
<path d="M0 0 C0 0.99 0 1.98 0 3 C-4.455 4.485 -4.455 4.485 -9 6 C-8.67 5.01 -8.34 4.02 -8 3 C-5.68970915 2.25740651 -3.354248 1.588562 -1 1 C-0.67 0.67 -0.34 0.34 0 0 Z " fill="#868586" transform="translate(142,164)"/>
<path d="M0 0 C-0.33 1.65 -0.66 3.3 -1 5 C-5.875 3.25 -5.875 3.25 -7 1 C-2.25 0 -2.25 0 0 0 Z " fill="#B8B9BB" transform="translate(83,147)"/>
<path d="M0 0 C0.66 0 1.32 0 2 0 C2 0.99 2 1.98 2 3 C1.34 3 0.68 3 0 3 C0.04125 3.94875 0.0825 4.8975 0.125 5.875 C0 9 0 9 -2 11 C-1.85957123 9.35369672 -1.71250671 7.70795821 -1.5625 6.0625 C-1.48128906 5.14597656 -1.40007813 4.22945313 -1.31640625 3.28515625 C-1 1 -1 1 0 0 Z " fill="#401418" transform="translate(49,80)"/>
<path d="M0 0 C3.63 0.66 7.26 1.32 11 2 C11 2.33 11 2.66 11 3 C9.54176788 3.0270043 8.08339325 3.04639787 6.625 3.0625 C5.81289062 3.07410156 5.00078125 3.08570313 4.1640625 3.09765625 C2 3 2 3 0 2 C0 1.34 0 0.68 0 0 Z " fill="#210C13" transform="translate(96,173)"/>
<path d="M0 0 C1.98 0 3.96 0 6 0 C6.33 1.65 6.66 3.3 7 5 C3.34683329 3.75023244 2.21934164 3.32901247 0 0 Z " fill="#8C8F8E" transform="translate(73,144)"/>
<path d="M0 0 C0.66 0 1.32 0 2 0 C1.67 2.97 1.34 5.94 1 9 C-1 7 -1 7 -1.1875 3.9375 C-1 1 -1 1 0 0 Z " fill="#B43A47" transform="translate(179,107)"/>
<path d="M0 0 C0 0.66 0 1.32 0 2 C-2.31 3.32 -4.62 4.64 -7 6 C-7 5.01 -7 4.02 -7 3 C-4.46815512 0.64276511 -3.52809907 0 0 0 Z " fill="#AD3137" transform="translate(72,56)"/>
</svg>
